<mxfile host="app.diagrams.net" modified="2021-02-15T21:49:31.638Z" agent="5.0 (X11)" etag="e-jX5Nf5xopbZ-k5k-N-" version="14.3.1" type="github">
  <diagram id="a4LYRkCKNMpzwqchR5Pi" name="Page-1">
    <mxGraphModel dx="1350" dy="748" grid="1" gridSize="10" guides="1" tooltips="1" connect="1" arrows="1" fold="1" page="1" pageScale="1" pageWidth="850" pageHeight="1100" math="0" shadow="0">
      <root>
        <mxCell id="0" />
        <mxCell id="1" parent="0" />
        <mxCell id="0MNRADxhmi58q4JGMs-J-1" value="" style="endArrow=none;dashed=1;html=1;fontSize=13;" edge="1" parent="1" source="0MNRADxhmi58q4JGMs-J-29">
          <mxGeometry width="50" height="50" relative="1" as="geometry">
            <mxPoint x="120" y="200" as="sourcePoint" />
            <mxPoint x="720" y="200" as="targetPoint" />
          </mxGeometry>
        </mxCell>
        <mxCell id="0MNRADxhmi58q4JGMs-J-2" value="+" style="text;html=1;strokeColor=none;fillColor=none;align=center;verticalAlign=middle;whiteSpace=wrap;rounded=0;dashed=1;dashPattern=1 1;fontSize=13;" vertex="1" parent="1">
          <mxGeometry x="120" y="190" height="20" as="geometry" />
        </mxCell>
        <mxCell id="0MNRADxhmi58q4JGMs-J-6" value="+" style="text;html=1;strokeColor=none;fillColor=none;align=center;verticalAlign=middle;whiteSpace=wrap;rounded=0;dashed=1;dashPattern=1 1;fontSize=13;" vertex="1" parent="1">
          <mxGeometry x="150" y="190" width="20" height="20" as="geometry" />
        </mxCell>
        <mxCell id="0MNRADxhmi58q4JGMs-J-9" value="+" style="text;html=1;strokeColor=none;fillColor=none;align=center;verticalAlign=middle;whiteSpace=wrap;rounded=0;dashed=1;dashPattern=1 1;fontSize=13;" vertex="1" parent="1">
          <mxGeometry x="190" y="190" width="20" height="20" as="geometry" />
        </mxCell>
        <mxCell id="0MNRADxhmi58q4JGMs-J-10" value="+" style="text;html=1;strokeColor=none;fillColor=none;align=center;verticalAlign=middle;whiteSpace=wrap;rounded=0;dashed=1;dashPattern=1 1;fontSize=13;" vertex="1" parent="1">
          <mxGeometry x="230" y="190" width="20" height="20" as="geometry" />
        </mxCell>
        <mxCell id="0MNRADxhmi58q4JGMs-J-11" value="+" style="text;html=1;strokeColor=none;fillColor=none;align=center;verticalAlign=middle;whiteSpace=wrap;rounded=0;dashed=1;dashPattern=1 1;fontSize=13;" vertex="1" parent="1">
          <mxGeometry x="270" y="190" width="20" height="20" as="geometry" />
        </mxCell>
        <mxCell id="0MNRADxhmi58q4JGMs-J-12" value="" style="endArrow=none;dashed=1;html=1;fontSize=13;" edge="1" parent="1" target="0MNRADxhmi58q4JGMs-J-11">
          <mxGeometry width="50" height="50" relative="1" as="geometry">
            <mxPoint x="120" y="200" as="sourcePoint" />
            <mxPoint x="680" y="200" as="targetPoint" />
          </mxGeometry>
        </mxCell>
        <mxCell id="0MNRADxhmi58q4JGMs-J-13" value="+" style="text;html=1;strokeColor=none;fillColor=none;align=center;verticalAlign=middle;whiteSpace=wrap;rounded=0;dashed=1;dashPattern=1 1;fontSize=13;" vertex="1" parent="1">
          <mxGeometry x="310" y="190" width="20" height="20" as="geometry" />
        </mxCell>
        <mxCell id="0MNRADxhmi58q4JGMs-J-14" value="" style="endArrow=none;dashed=1;html=1;fontSize=13;" edge="1" parent="1" source="0MNRADxhmi58q4JGMs-J-11" target="0MNRADxhmi58q4JGMs-J-13">
          <mxGeometry width="50" height="50" relative="1" as="geometry">
            <mxPoint x="290" y="200" as="sourcePoint" />
            <mxPoint x="680" y="200" as="targetPoint" />
          </mxGeometry>
        </mxCell>
        <mxCell id="0MNRADxhmi58q4JGMs-J-15" value="+" style="text;html=1;strokeColor=none;fillColor=none;align=center;verticalAlign=middle;whiteSpace=wrap;rounded=0;dashed=1;dashPattern=1 1;fontSize=13;" vertex="1" parent="1">
          <mxGeometry x="350" y="190" width="20" height="20" as="geometry" />
        </mxCell>
        <mxCell id="0MNRADxhmi58q4JGMs-J-16" value="" style="endArrow=none;dashed=1;html=1;fontSize=13;" edge="1" parent="1" source="0MNRADxhmi58q4JGMs-J-13" target="0MNRADxhmi58q4JGMs-J-15">
          <mxGeometry width="50" height="50" relative="1" as="geometry">
            <mxPoint x="330" y="200" as="sourcePoint" />
            <mxPoint x="680" y="200" as="targetPoint" />
          </mxGeometry>
        </mxCell>
        <mxCell id="0MNRADxhmi58q4JGMs-J-17" value="+" style="text;html=1;strokeColor=none;fillColor=none;align=center;verticalAlign=middle;whiteSpace=wrap;rounded=0;dashed=1;dashPattern=1 1;fontSize=13;" vertex="1" parent="1">
          <mxGeometry x="390" y="190" width="20" height="20" as="geometry" />
        </mxCell>
        <mxCell id="0MNRADxhmi58q4JGMs-J-18" value="+" style="text;html=1;strokeColor=none;fillColor=none;align=center;verticalAlign=middle;whiteSpace=wrap;rounded=0;dashed=1;dashPattern=1 1;fontSize=13;" vertex="1" parent="1">
          <mxGeometry x="430" y="190" width="20" height="20" as="geometry" />
        </mxCell>
        <mxCell id="0MNRADxhmi58q4JGMs-J-20" value="+" style="text;html=1;strokeColor=none;fillColor=none;align=center;verticalAlign=middle;whiteSpace=wrap;rounded=0;dashed=1;dashPattern=1 1;fontSize=13;" vertex="1" parent="1">
          <mxGeometry x="470" y="190" width="20" height="20" as="geometry" />
        </mxCell>
        <mxCell id="0MNRADxhmi58q4JGMs-J-21" value="" style="endArrow=none;dashed=1;html=1;fontSize=13;" edge="1" parent="1" source="0MNRADxhmi58q4JGMs-J-15" target="0MNRADxhmi58q4JGMs-J-20">
          <mxGeometry width="50" height="50" relative="1" as="geometry">
            <mxPoint x="370" y="200" as="sourcePoint" />
            <mxPoint x="680" y="200" as="targetPoint" />
          </mxGeometry>
        </mxCell>
        <mxCell id="0MNRADxhmi58q4JGMs-J-22" value="+" style="text;html=1;strokeColor=none;fillColor=none;align=center;verticalAlign=middle;whiteSpace=wrap;rounded=0;dashed=1;dashPattern=1 1;fontSize=13;" vertex="1" parent="1">
          <mxGeometry x="510" y="190" width="20" height="20" as="geometry" />
        </mxCell>
        <mxCell id="0MNRADxhmi58q4JGMs-J-23" value="+" style="text;html=1;strokeColor=none;fillColor=none;align=center;verticalAlign=middle;whiteSpace=wrap;rounded=0;dashed=1;dashPattern=1 1;fontSize=13;" vertex="1" parent="1">
          <mxGeometry x="550" y="190" width="20" height="20" as="geometry" />
        </mxCell>
        <mxCell id="0MNRADxhmi58q4JGMs-J-25" value="+" style="text;html=1;strokeColor=none;fillColor=none;align=center;verticalAlign=middle;whiteSpace=wrap;rounded=0;dashed=1;dashPattern=1 1;fontSize=13;" vertex="1" parent="1">
          <mxGeometry x="590" y="190" width="20" height="20" as="geometry" />
        </mxCell>
        <mxCell id="0MNRADxhmi58q4JGMs-J-26" value="+" style="text;html=1;strokeColor=none;fillColor=none;align=center;verticalAlign=middle;whiteSpace=wrap;rounded=0;dashed=1;dashPattern=1 1;fontSize=13;" vertex="1" parent="1">
          <mxGeometry x="630" y="190" width="20" height="20" as="geometry" />
        </mxCell>
        <mxCell id="0MNRADxhmi58q4JGMs-J-27" value="" style="endArrow=none;dashed=1;html=1;fontSize=13;" edge="1" parent="1" source="0MNRADxhmi58q4JGMs-J-20" target="0MNRADxhmi58q4JGMs-J-26">
          <mxGeometry width="50" height="50" relative="1" as="geometry">
            <mxPoint x="490" y="200" as="sourcePoint" />
            <mxPoint x="680" y="200" as="targetPoint" />
          </mxGeometry>
        </mxCell>
        <mxCell id="0MNRADxhmi58q4JGMs-J-29" value="+" style="text;html=1;strokeColor=none;fillColor=none;align=center;verticalAlign=middle;whiteSpace=wrap;rounded=0;dashed=1;dashPattern=1 1;fontSize=13;" vertex="1" parent="1">
          <mxGeometry x="710" y="190" width="20" height="20" as="geometry" />
        </mxCell>
        <mxCell id="0MNRADxhmi58q4JGMs-J-30" value="" style="endArrow=none;dashed=1;html=1;fontSize=13;" edge="1" parent="1" source="0MNRADxhmi58q4JGMs-J-28" target="0MNRADxhmi58q4JGMs-J-29">
          <mxGeometry width="50" height="50" relative="1" as="geometry">
            <mxPoint x="650" y="200" as="sourcePoint" />
            <mxPoint x="720" y="200" as="targetPoint" />
          </mxGeometry>
        </mxCell>
        <mxCell id="0MNRADxhmi58q4JGMs-J-28" value="+" style="text;html=1;strokeColor=none;fillColor=none;align=center;verticalAlign=middle;whiteSpace=wrap;rounded=0;dashed=1;dashPattern=1 1;fontSize=13;" vertex="1" parent="1">
          <mxGeometry x="670" y="190" width="20" height="20" as="geometry" />
        </mxCell>
        <mxCell id="0MNRADxhmi58q4JGMs-J-31" value="" style="endArrow=none;dashed=1;html=1;fontSize=13;" edge="1" parent="1" source="0MNRADxhmi58q4JGMs-J-26" target="0MNRADxhmi58q4JGMs-J-28">
          <mxGeometry width="50" height="50" relative="1" as="geometry">
            <mxPoint x="650" y="200" as="sourcePoint" />
            <mxPoint x="710" y="200" as="targetPoint" />
          </mxGeometry>
        </mxCell>
        <mxCell id="0MNRADxhmi58q4JGMs-J-64" value="" style="endArrow=none;dashed=1;html=1;fontSize=13;" edge="1" parent="1" source="0MNRADxhmi58q4JGMs-J-84">
          <mxGeometry width="50" height="50" relative="1" as="geometry">
            <mxPoint x="120" y="240" as="sourcePoint" />
            <mxPoint x="720" y="240" as="targetPoint" />
          </mxGeometry>
        </mxCell>
        <mxCell id="0MNRADxhmi58q4JGMs-J-65" value="+" style="text;html=1;strokeColor=none;fillColor=none;align=center;verticalAlign=middle;whiteSpace=wrap;rounded=0;dashed=1;dashPattern=1 1;fontSize=13;" vertex="1" parent="1">
          <mxGeometry x="120" y="230" height="20" as="geometry" />
        </mxCell>
        <mxCell id="0MNRADxhmi58q4JGMs-J-66" value="+" style="text;html=1;strokeColor=none;fillColor=none;align=center;verticalAlign=middle;whiteSpace=wrap;rounded=0;dashed=1;dashPattern=1 1;fontSize=13;" vertex="1" parent="1">
          <mxGeometry x="150" y="230" width="20" height="20" as="geometry" />
        </mxCell>
        <mxCell id="0MNRADxhmi58q4JGMs-J-67" value="+" style="text;html=1;strokeColor=none;fillColor=none;align=center;verticalAlign=middle;whiteSpace=wrap;rounded=0;dashed=1;dashPattern=1 1;fontSize=13;" vertex="1" parent="1">
          <mxGeometry x="190" y="230" width="20" height="20" as="geometry" />
        </mxCell>
        <mxCell id="0MNRADxhmi58q4JGMs-J-68" value="+" style="text;html=1;strokeColor=none;fillColor=none;align=center;verticalAlign=middle;whiteSpace=wrap;rounded=0;dashed=1;dashPattern=1 1;fontSize=13;" vertex="1" parent="1">
          <mxGeometry x="230" y="230" width="20" height="20" as="geometry" />
        </mxCell>
        <mxCell id="0MNRADxhmi58q4JGMs-J-69" value="+" style="text;html=1;strokeColor=none;fillColor=none;align=center;verticalAlign=middle;whiteSpace=wrap;rounded=0;dashed=1;dashPattern=1 1;fontSize=13;" vertex="1" parent="1">
          <mxGeometry x="270" y="230" width="20" height="20" as="geometry" />
        </mxCell>
        <mxCell id="0MNRADxhmi58q4JGMs-J-70" value="" style="endArrow=none;dashed=1;html=1;fontSize=13;" edge="1" parent="1" target="0MNRADxhmi58q4JGMs-J-69">
          <mxGeometry width="50" height="50" relative="1" as="geometry">
            <mxPoint x="120" y="240" as="sourcePoint" />
            <mxPoint x="680" y="240" as="targetPoint" />
          </mxGeometry>
        </mxCell>
        <mxCell id="0MNRADxhmi58q4JGMs-J-71" value="+" style="text;html=1;strokeColor=none;fillColor=none;align=center;verticalAlign=middle;whiteSpace=wrap;rounded=0;dashed=1;dashPattern=1 1;fontSize=13;" vertex="1" parent="1">
          <mxGeometry x="310" y="230" width="20" height="20" as="geometry" />
        </mxCell>
        <mxCell id="0MNRADxhmi58q4JGMs-J-72" value="" style="endArrow=none;dashed=1;html=1;fontSize=13;" edge="1" parent="1" source="0MNRADxhmi58q4JGMs-J-69" target="0MNRADxhmi58q4JGMs-J-71">
          <mxGeometry width="50" height="50" relative="1" as="geometry">
            <mxPoint x="290" y="240" as="sourcePoint" />
            <mxPoint x="680" y="240" as="targetPoint" />
          </mxGeometry>
        </mxCell>
        <mxCell id="0MNRADxhmi58q4JGMs-J-73" value="+" style="text;html=1;strokeColor=none;fillColor=none;align=center;verticalAlign=middle;whiteSpace=wrap;rounded=0;dashed=1;dashPattern=1 1;fontSize=13;" vertex="1" parent="1">
          <mxGeometry x="350" y="230" width="20" height="20" as="geometry" />
        </mxCell>
        <mxCell id="0MNRADxhmi58q4JGMs-J-74" value="" style="endArrow=none;dashed=1;html=1;fontSize=13;" edge="1" parent="1" source="0MNRADxhmi58q4JGMs-J-71" target="0MNRADxhmi58q4JGMs-J-73">
          <mxGeometry width="50" height="50" relative="1" as="geometry">
            <mxPoint x="330" y="240" as="sourcePoint" />
            <mxPoint x="680" y="240" as="targetPoint" />
          </mxGeometry>
        </mxCell>
        <mxCell id="0MNRADxhmi58q4JGMs-J-75" value="+" style="text;html=1;strokeColor=none;fillColor=none;align=center;verticalAlign=middle;whiteSpace=wrap;rounded=0;dashed=1;dashPattern=1 1;fontSize=13;" vertex="1" parent="1">
          <mxGeometry x="390" y="230" width="20" height="20" as="geometry" />
        </mxCell>
        <mxCell id="0MNRADxhmi58q4JGMs-J-76" value="+" style="text;html=1;strokeColor=none;fillColor=none;align=center;verticalAlign=middle;whiteSpace=wrap;rounded=0;dashed=1;dashPattern=1 1;fontSize=13;" vertex="1" parent="1">
          <mxGeometry x="430" y="230" width="20" height="20" as="geometry" />
        </mxCell>
        <mxCell id="0MNRADxhmi58q4JGMs-J-77" value="+" style="text;html=1;strokeColor=none;fillColor=none;align=center;verticalAlign=middle;whiteSpace=wrap;rounded=0;dashed=1;dashPattern=1 1;fontSize=13;" vertex="1" parent="1">
          <mxGeometry x="470" y="230" width="20" height="20" as="geometry" />
        </mxCell>
        <mxCell id="0MNRADxhmi58q4JGMs-J-78" value="" style="endArrow=none;dashed=1;html=1;fontSize=13;" edge="1" parent="1" source="0MNRADxhmi58q4JGMs-J-73" target="0MNRADxhmi58q4JGMs-J-77">
          <mxGeometry width="50" height="50" relative="1" as="geometry">
            <mxPoint x="370" y="240" as="sourcePoint" />
            <mxPoint x="680" y="240" as="targetPoint" />
          </mxGeometry>
        </mxCell>
        <mxCell id="0MNRADxhmi58q4JGMs-J-79" value="+" style="text;html=1;strokeColor=none;fillColor=none;align=center;verticalAlign=middle;whiteSpace=wrap;rounded=0;dashed=1;dashPattern=1 1;fontSize=13;" vertex="1" parent="1">
          <mxGeometry x="510" y="230" width="20" height="20" as="geometry" />
        </mxCell>
        <mxCell id="0MNRADxhmi58q4JGMs-J-80" value="+" style="text;html=1;strokeColor=none;fillColor=none;align=center;verticalAlign=middle;whiteSpace=wrap;rounded=0;dashed=1;dashPattern=1 1;fontSize=13;" vertex="1" parent="1">
          <mxGeometry x="550" y="230" width="20" height="20" as="geometry" />
        </mxCell>
        <mxCell id="0MNRADxhmi58q4JGMs-J-81" value="+" style="text;html=1;strokeColor=none;fillColor=none;align=center;verticalAlign=middle;whiteSpace=wrap;rounded=0;dashed=1;dashPattern=1 1;fontSize=13;" vertex="1" parent="1">
          <mxGeometry x="590" y="230" width="20" height="20" as="geometry" />
        </mxCell>
        <mxCell id="0MNRADxhmi58q4JGMs-J-82" value="+" style="text;html=1;strokeColor=none;fillColor=none;align=center;verticalAlign=middle;whiteSpace=wrap;rounded=0;dashed=1;dashPattern=1 1;fontSize=13;" vertex="1" parent="1">
          <mxGeometry x="630" y="230" width="20" height="20" as="geometry" />
        </mxCell>
        <mxCell id="0MNRADxhmi58q4JGMs-J-83" value="" style="endArrow=none;dashed=1;html=1;fontSize=13;" edge="1" parent="1" source="0MNRADxhmi58q4JGMs-J-77" target="0MNRADxhmi58q4JGMs-J-82">
          <mxGeometry width="50" height="50" relative="1" as="geometry">
            <mxPoint x="490" y="240" as="sourcePoint" />
            <mxPoint x="680" y="240" as="targetPoint" />
          </mxGeometry>
        </mxCell>
        <mxCell id="0MNRADxhmi58q4JGMs-J-84" value="+" style="text;html=1;strokeColor=none;fillColor=none;align=center;verticalAlign=middle;whiteSpace=wrap;rounded=0;dashed=1;dashPattern=1 1;fontSize=13;" vertex="1" parent="1">
          <mxGeometry x="710" y="230" width="20" height="20" as="geometry" />
        </mxCell>
        <mxCell id="0MNRADxhmi58q4JGMs-J-85" value="" style="endArrow=none;dashed=1;html=1;fontSize=13;" edge="1" parent="1" source="0MNRADxhmi58q4JGMs-J-86" target="0MNRADxhmi58q4JGMs-J-84">
          <mxGeometry width="50" height="50" relative="1" as="geometry">
            <mxPoint x="650" y="240" as="sourcePoint" />
            <mxPoint x="720" y="240" as="targetPoint" />
          </mxGeometry>
        </mxCell>
        <mxCell id="0MNRADxhmi58q4JGMs-J-86" value="+" style="text;html=1;strokeColor=none;fillColor=none;align=center;verticalAlign=middle;whiteSpace=wrap;rounded=0;dashed=1;dashPattern=1 1;fontSize=13;" vertex="1" parent="1">
          <mxGeometry x="670" y="230" width="20" height="20" as="geometry" />
        </mxCell>
        <mxCell id="0MNRADxhmi58q4JGMs-J-87" value="" style="endArrow=none;dashed=1;html=1;fontSize=13;" edge="1" parent="1" source="0MNRADxhmi58q4JGMs-J-82" target="0MNRADxhmi58q4JGMs-J-86">
          <mxGeometry width="50" height="50" relative="1" as="geometry">
            <mxPoint x="650" y="240" as="sourcePoint" />
            <mxPoint x="710" y="240" as="targetPoint" />
          </mxGeometry>
        </mxCell>
        <mxCell id="0MNRADxhmi58q4JGMs-J-88" value="" style="endArrow=none;dashed=1;html=1;fontSize=13;" edge="1" parent="1" source="0MNRADxhmi58q4JGMs-J-108">
          <mxGeometry width="50" height="50" relative="1" as="geometry">
            <mxPoint x="120" y="280" as="sourcePoint" />
            <mxPoint x="720" y="280" as="targetPoint" />
          </mxGeometry>
        </mxCell>
        <mxCell id="0MNRADxhmi58q4JGMs-J-89" value="+" style="text;html=1;strokeColor=none;fillColor=none;align=center;verticalAlign=middle;whiteSpace=wrap;rounded=0;dashed=1;dashPattern=1 1;fontSize=13;" vertex="1" parent="1">
          <mxGeometry x="120" y="270" height="20" as="geometry" />
        </mxCell>
        <mxCell id="0MNRADxhmi58q4JGMs-J-90" value="+" style="text;html=1;strokeColor=none;fillColor=none;align=center;verticalAlign=middle;whiteSpace=wrap;rounded=0;dashed=1;dashPattern=1 1;fontSize=13;" vertex="1" parent="1">
          <mxGeometry x="150" y="270" width="20" height="20" as="geometry" />
        </mxCell>
        <mxCell id="0MNRADxhmi58q4JGMs-J-91" value="+" style="text;html=1;strokeColor=none;fillColor=none;align=center;verticalAlign=middle;whiteSpace=wrap;rounded=0;dashed=1;dashPattern=1 1;fontSize=13;" vertex="1" parent="1">
          <mxGeometry x="190" y="270" width="20" height="20" as="geometry" />
        </mxCell>
        <mxCell id="0MNRADxhmi58q4JGMs-J-92" value="+" style="text;html=1;strokeColor=none;fillColor=none;align=center;verticalAlign=middle;whiteSpace=wrap;rounded=0;dashed=1;dashPattern=1 1;fontSize=13;" vertex="1" parent="1">
          <mxGeometry x="230" y="270" width="20" height="20" as="geometry" />
        </mxCell>
        <mxCell id="0MNRADxhmi58q4JGMs-J-93" value="+" style="text;html=1;strokeColor=none;fillColor=none;align=center;verticalAlign=middle;whiteSpace=wrap;rounded=0;dashed=1;dashPattern=1 1;fontSize=13;" vertex="1" parent="1">
          <mxGeometry x="270" y="270" width="20" height="20" as="geometry" />
        </mxCell>
        <mxCell id="0MNRADxhmi58q4JGMs-J-94" value="" style="endArrow=none;dashed=1;html=1;fontSize=13;" edge="1" parent="1" target="0MNRADxhmi58q4JGMs-J-93">
          <mxGeometry width="50" height="50" relative="1" as="geometry">
            <mxPoint x="120" y="280" as="sourcePoint" />
            <mxPoint x="680" y="280" as="targetPoint" />
          </mxGeometry>
        </mxCell>
        <mxCell id="0MNRADxhmi58q4JGMs-J-95" value="+" style="text;html=1;strokeColor=none;fillColor=none;align=center;verticalAlign=middle;whiteSpace=wrap;rounded=0;dashed=1;dashPattern=1 1;fontSize=13;" vertex="1" parent="1">
          <mxGeometry x="310" y="270" width="20" height="20" as="geometry" />
        </mxCell>
        <mxCell id="0MNRADxhmi58q4JGMs-J-96" value="" style="endArrow=none;dashed=1;html=1;fontSize=13;" edge="1" parent="1" source="0MNRADxhmi58q4JGMs-J-93" target="0MNRADxhmi58q4JGMs-J-95">
          <mxGeometry width="50" height="50" relative="1" as="geometry">
            <mxPoint x="290" y="280" as="sourcePoint" />
            <mxPoint x="680" y="280" as="targetPoint" />
          </mxGeometry>
        </mxCell>
        <mxCell id="0MNRADxhmi58q4JGMs-J-97" value="+" style="text;html=1;strokeColor=none;fillColor=none;align=center;verticalAlign=middle;whiteSpace=wrap;rounded=0;dashed=1;dashPattern=1 1;fontSize=13;" vertex="1" parent="1">
          <mxGeometry x="350" y="270" width="20" height="20" as="geometry" />
        </mxCell>
        <mxCell id="0MNRADxhmi58q4JGMs-J-98" value="" style="endArrow=none;dashed=1;html=1;fontSize=13;" edge="1" parent="1" source="0MNRADxhmi58q4JGMs-J-95" target="0MNRADxhmi58q4JGMs-J-97">
          <mxGeometry width="50" height="50" relative="1" as="geometry">
            <mxPoint x="330" y="280" as="sourcePoint" />
            <mxPoint x="680" y="280" as="targetPoint" />
          </mxGeometry>
        </mxCell>
        <mxCell id="0MNRADxhmi58q4JGMs-J-99" value="+" style="text;html=1;strokeColor=none;fillColor=none;align=center;verticalAlign=middle;whiteSpace=wrap;rounded=0;dashed=1;dashPattern=1 1;fontSize=13;" vertex="1" parent="1">
          <mxGeometry x="390" y="270" width="20" height="20" as="geometry" />
        </mxCell>
        <mxCell id="0MNRADxhmi58q4JGMs-J-100" value="+" style="text;html=1;strokeColor=none;fillColor=none;align=center;verticalAlign=middle;whiteSpace=wrap;rounded=0;dashed=1;dashPattern=1 1;fontSize=13;" vertex="1" parent="1">
          <mxGeometry x="430" y="270" width="20" height="20" as="geometry" />
        </mxCell>
        <mxCell id="0MNRADxhmi58q4JGMs-J-101" value="+" style="text;html=1;strokeColor=none;fillColor=none;align=center;verticalAlign=middle;whiteSpace=wrap;rounded=0;dashed=1;dashPattern=1 1;fontSize=13;" vertex="1" parent="1">
          <mxGeometry x="470" y="270" width="20" height="20" as="geometry" />
        </mxCell>
        <mxCell id="0MNRADxhmi58q4JGMs-J-102" value="" style="endArrow=none;dashed=1;html=1;fontSize=13;" edge="1" parent="1" source="0MNRADxhmi58q4JGMs-J-97" target="0MNRADxhmi58q4JGMs-J-101">
          <mxGeometry width="50" height="50" relative="1" as="geometry">
            <mxPoint x="370" y="280" as="sourcePoint" />
            <mxPoint x="680" y="280" as="targetPoint" />
          </mxGeometry>
        </mxCell>
        <mxCell id="0MNRADxhmi58q4JGMs-J-103" value="+" style="text;html=1;strokeColor=none;fillColor=none;align=center;verticalAlign=middle;whiteSpace=wrap;rounded=0;dashed=1;dashPattern=1 1;fontSize=13;" vertex="1" parent="1">
          <mxGeometry x="510" y="270" width="20" height="20" as="geometry" />
        </mxCell>
        <mxCell id="0MNRADxhmi58q4JGMs-J-104" value="+" style="text;html=1;strokeColor=none;fillColor=none;align=center;verticalAlign=middle;whiteSpace=wrap;rounded=0;dashed=1;dashPattern=1 1;fontSize=13;" vertex="1" parent="1">
          <mxGeometry x="550" y="270" width="20" height="20" as="geometry" />
        </mxCell>
        <mxCell id="0MNRADxhmi58q4JGMs-J-105" value="+" style="text;html=1;strokeColor=none;fillColor=none;align=center;verticalAlign=middle;whiteSpace=wrap;rounded=0;dashed=1;dashPattern=1 1;fontSize=13;" vertex="1" parent="1">
          <mxGeometry x="590" y="270" width="20" height="20" as="geometry" />
        </mxCell>
        <mxCell id="0MNRADxhmi58q4JGMs-J-106" value="+" style="text;html=1;strokeColor=none;fillColor=none;align=center;verticalAlign=middle;whiteSpace=wrap;rounded=0;dashed=1;dashPattern=1 1;fontSize=13;" vertex="1" parent="1">
          <mxGeometry x="630" y="270" width="20" height="20" as="geometry" />
        </mxCell>
        <mxCell id="0MNRADxhmi58q4JGMs-J-107" value="" style="endArrow=none;dashed=1;html=1;fontSize=13;" edge="1" parent="1" source="0MNRADxhmi58q4JGMs-J-101" target="0MNRADxhmi58q4JGMs-J-106">
          <mxGeometry width="50" height="50" relative="1" as="geometry">
            <mxPoint x="490" y="280" as="sourcePoint" />
            <mxPoint x="680" y="280" as="targetPoint" />
          </mxGeometry>
        </mxCell>
        <mxCell id="0MNRADxhmi58q4JGMs-J-108" value="+" style="text;html=1;strokeColor=none;fillColor=none;align=center;verticalAlign=middle;whiteSpace=wrap;rounded=0;dashed=1;dashPattern=1 1;fontSize=13;" vertex="1" parent="1">
          <mxGeometry x="710" y="270" width="20" height="20" as="geometry" />
        </mxCell>
        <mxCell id="0MNRADxhmi58q4JGMs-J-109" value="" style="endArrow=none;dashed=1;html=1;fontSize=13;" edge="1" parent="1" source="0MNRADxhmi58q4JGMs-J-110" target="0MNRADxhmi58q4JGMs-J-108">
          <mxGeometry width="50" height="50" relative="1" as="geometry">
            <mxPoint x="650" y="280" as="sourcePoint" />
            <mxPoint x="720" y="280" as="targetPoint" />
          </mxGeometry>
        </mxCell>
        <mxCell id="0MNRADxhmi58q4JGMs-J-110" value="+" style="text;html=1;strokeColor=none;fillColor=none;align=center;verticalAlign=middle;whiteSpace=wrap;rounded=0;dashed=1;dashPattern=1 1;fontSize=13;" vertex="1" parent="1">
          <mxGeometry x="670" y="270" width="20" height="20" as="geometry" />
        </mxCell>
        <mxCell id="0MNRADxhmi58q4JGMs-J-111" value="" style="endArrow=none;dashed=1;html=1;fontSize=13;" edge="1" parent="1" source="0MNRADxhmi58q4JGMs-J-106" target="0MNRADxhmi58q4JGMs-J-110">
          <mxGeometry width="50" height="50" relative="1" as="geometry">
            <mxPoint x="650" y="280" as="sourcePoint" />
            <mxPoint x="710" y="280" as="targetPoint" />
          </mxGeometry>
        </mxCell>
        <mxCell id="0MNRADxhmi58q4JGMs-J-112" value="" style="endArrow=none;dashed=1;html=1;fontSize=13;" edge="1" parent="1" source="0MNRADxhmi58q4JGMs-J-132">
          <mxGeometry width="50" height="50" relative="1" as="geometry">
            <mxPoint x="120" y="320" as="sourcePoint" />
            <mxPoint x="720" y="320" as="targetPoint" />
          </mxGeometry>
        </mxCell>
        <mxCell id="0MNRADxhmi58q4JGMs-J-113" value="+" style="text;html=1;strokeColor=none;fillColor=none;align=center;verticalAlign=middle;whiteSpace=wrap;rounded=0;dashed=1;dashPattern=1 1;fontSize=13;" vertex="1" parent="1">
          <mxGeometry x="120" y="310" height="20" as="geometry" />
        </mxCell>
        <mxCell id="0MNRADxhmi58q4JGMs-J-114" value="+" style="text;html=1;strokeColor=none;fillColor=none;align=center;verticalAlign=middle;whiteSpace=wrap;rounded=0;dashed=1;dashPattern=1 1;fontSize=13;" vertex="1" parent="1">
          <mxGeometry x="150" y="310" width="20" height="20" as="geometry" />
        </mxCell>
        <mxCell id="0MNRADxhmi58q4JGMs-J-115" value="+" style="text;html=1;strokeColor=none;fillColor=none;align=center;verticalAlign=middle;whiteSpace=wrap;rounded=0;dashed=1;dashPattern=1 1;fontSize=13;" vertex="1" parent="1">
          <mxGeometry x="190" y="310" width="20" height="20" as="geometry" />
        </mxCell>
        <mxCell id="0MNRADxhmi58q4JGMs-J-116" value="+" style="text;html=1;strokeColor=none;fillColor=none;align=center;verticalAlign=middle;whiteSpace=wrap;rounded=0;dashed=1;dashPattern=1 1;fontSize=13;" vertex="1" parent="1">
          <mxGeometry x="230" y="310" width="20" height="20" as="geometry" />
        </mxCell>
        <mxCell id="0MNRADxhmi58q4JGMs-J-117" value="+" style="text;html=1;strokeColor=none;fillColor=none;align=center;verticalAlign=middle;whiteSpace=wrap;rounded=0;dashed=1;dashPattern=1 1;fontSize=13;" vertex="1" parent="1">
          <mxGeometry x="270" y="310" width="20" height="20" as="geometry" />
        </mxCell>
        <mxCell id="0MNRADxhmi58q4JGMs-J-118" value="" style="endArrow=none;dashed=1;html=1;fontSize=13;" edge="1" parent="1" target="0MNRADxhmi58q4JGMs-J-117">
          <mxGeometry width="50" height="50" relative="1" as="geometry">
            <mxPoint x="120" y="320" as="sourcePoint" />
            <mxPoint x="680" y="320" as="targetPoint" />
          </mxGeometry>
        </mxCell>
        <mxCell id="0MNRADxhmi58q4JGMs-J-119" value="+" style="text;html=1;strokeColor=none;fillColor=none;align=center;verticalAlign=middle;whiteSpace=wrap;rounded=0;dashed=1;dashPattern=1 1;fontSize=13;" vertex="1" parent="1">
          <mxGeometry x="310" y="310" width="20" height="20" as="geometry" />
        </mxCell>
        <mxCell id="0MNRADxhmi58q4JGMs-J-120" value="" style="endArrow=none;dashed=1;html=1;fontSize=13;" edge="1" parent="1" source="0MNRADxhmi58q4JGMs-J-117" target="0MNRADxhmi58q4JGMs-J-119">
          <mxGeometry width="50" height="50" relative="1" as="geometry">
            <mxPoint x="290" y="320" as="sourcePoint" />
            <mxPoint x="680" y="320" as="targetPoint" />
          </mxGeometry>
        </mxCell>
        <mxCell id="0MNRADxhmi58q4JGMs-J-121" value="+" style="text;html=1;strokeColor=none;fillColor=none;align=center;verticalAlign=middle;whiteSpace=wrap;rounded=0;dashed=1;dashPattern=1 1;fontSize=13;" vertex="1" parent="1">
          <mxGeometry x="350" y="310" width="20" height="20" as="geometry" />
        </mxCell>
        <mxCell id="0MNRADxhmi58q4JGMs-J-122" value="" style="endArrow=none;dashed=1;html=1;fontSize=13;" edge="1" parent="1" source="0MNRADxhmi58q4JGMs-J-119" target="0MNRADxhmi58q4JGMs-J-121">
          <mxGeometry width="50" height="50" relative="1" as="geometry">
            <mxPoint x="330" y="320" as="sourcePoint" />
            <mxPoint x="680" y="320" as="targetPoint" />
          </mxGeometry>
        </mxCell>
        <mxCell id="0MNRADxhmi58q4JGMs-J-123" value="+" style="text;html=1;strokeColor=none;fillColor=none;align=center;verticalAlign=middle;whiteSpace=wrap;rounded=0;dashed=1;dashPattern=1 1;fontSize=13;" vertex="1" parent="1">
          <mxGeometry x="390" y="310" width="20" height="20" as="geometry" />
        </mxCell>
        <mxCell id="0MNRADxhmi58q4JGMs-J-124" value="+" style="text;html=1;strokeColor=none;fillColor=none;align=center;verticalAlign=middle;whiteSpace=wrap;rounded=0;dashed=1;dashPattern=1 1;fontSize=13;" vertex="1" parent="1">
          <mxGeometry x="430" y="310" width="20" height="20" as="geometry" />
        </mxCell>
        <mxCell id="0MNRADxhmi58q4JGMs-J-125" value="+" style="text;html=1;strokeColor=none;fillColor=none;align=center;verticalAlign=middle;whiteSpace=wrap;rounded=0;dashed=1;dashPattern=1 1;fontSize=13;" vertex="1" parent="1">
          <mxGeometry x="470" y="310" width="20" height="20" as="geometry" />
        </mxCell>
        <mxCell id="0MNRADxhmi58q4JGMs-J-126" value="" style="endArrow=none;dashed=1;html=1;fontSize=13;" edge="1" parent="1" source="0MNRADxhmi58q4JGMs-J-121" target="0MNRADxhmi58q4JGMs-J-125">
          <mxGeometry width="50" height="50" relative="1" as="geometry">
            <mxPoint x="370" y="320" as="sourcePoint" />
            <mxPoint x="680" y="320" as="targetPoint" />
          </mxGeometry>
        </mxCell>
        <mxCell id="0MNRADxhmi58q4JGMs-J-127" value="+" style="text;html=1;strokeColor=none;fillColor=none;align=center;verticalAlign=middle;whiteSpace=wrap;rounded=0;dashed=1;dashPattern=1 1;fontSize=13;" vertex="1" parent="1">
          <mxGeometry x="510" y="310" width="20" height="20" as="geometry" />
        </mxCell>
        <mxCell id="0MNRADxhmi58q4JGMs-J-128" value="+" style="text;html=1;strokeColor=none;fillColor=none;align=center;verticalAlign=middle;whiteSpace=wrap;rounded=0;dashed=1;dashPattern=1 1;fontSize=13;" vertex="1" parent="1">
          <mxGeometry x="550" y="310" width="20" height="20" as="geometry" />
        </mxCell>
        <mxCell id="0MNRADxhmi58q4JGMs-J-129" value="+" style="text;html=1;strokeColor=none;fillColor=none;align=center;verticalAlign=middle;whiteSpace=wrap;rounded=0;dashed=1;dashPattern=1 1;fontSize=13;" vertex="1" parent="1">
          <mxGeometry x="590" y="310" width="20" height="20" as="geometry" />
        </mxCell>
        <mxCell id="0MNRADxhmi58q4JGMs-J-130" value="+" style="text;html=1;strokeColor=none;fillColor=none;align=center;verticalAlign=middle;whiteSpace=wrap;rounded=0;dashed=1;dashPattern=1 1;fontSize=13;" vertex="1" parent="1">
          <mxGeometry x="630" y="310" width="20" height="20" as="geometry" />
        </mxCell>
        <mxCell id="0MNRADxhmi58q4JGMs-J-131" value="" style="endArrow=none;dashed=1;html=1;fontSize=13;" edge="1" parent="1" source="0MNRADxhmi58q4JGMs-J-125" target="0MNRADxhmi58q4JGMs-J-130">
          <mxGeometry width="50" height="50" relative="1" as="geometry">
            <mxPoint x="490" y="320" as="sourcePoint" />
            <mxPoint x="680" y="320" as="targetPoint" />
          </mxGeometry>
        </mxCell>
        <mxCell id="0MNRADxhmi58q4JGMs-J-132" value="+" style="text;html=1;strokeColor=none;fillColor=none;align=center;verticalAlign=middle;whiteSpace=wrap;rounded=0;dashed=1;dashPattern=1 1;fontSize=13;" vertex="1" parent="1">
          <mxGeometry x="710" y="310" width="20" height="20" as="geometry" />
        </mxCell>
        <mxCell id="0MNRADxhmi58q4JGMs-J-133" value="" style="endArrow=none;dashed=1;html=1;fontSize=13;" edge="1" parent="1" source="0MNRADxhmi58q4JGMs-J-134" target="0MNRADxhmi58q4JGMs-J-132">
          <mxGeometry width="50" height="50" relative="1" as="geometry">
            <mxPoint x="650" y="320" as="sourcePoint" />
            <mxPoint x="720" y="320" as="targetPoint" />
          </mxGeometry>
        </mxCell>
        <mxCell id="0MNRADxhmi58q4JGMs-J-134" value="+" style="text;html=1;strokeColor=none;fillColor=none;align=center;verticalAlign=middle;whiteSpace=wrap;rounded=0;dashed=1;dashPattern=1 1;fontSize=13;" vertex="1" parent="1">
          <mxGeometry x="670" y="310" width="20" height="20" as="geometry" />
        </mxCell>
        <mxCell id="0MNRADxhmi58q4JGMs-J-135" value="" style="endArrow=none;dashed=1;html=1;fontSize=13;" edge="1" parent="1" source="0MNRADxhmi58q4JGMs-J-130" target="0MNRADxhmi58q4JGMs-J-134">
          <mxGeometry width="50" height="50" relative="1" as="geometry">
            <mxPoint x="650" y="320" as="sourcePoint" />
            <mxPoint x="710" y="320" as="targetPoint" />
          </mxGeometry>
        </mxCell>
        <mxCell id="0MNRADxhmi58q4JGMs-J-136" value="" style="endArrow=none;dashed=1;html=1;fontSize=13;" edge="1" parent="1" source="0MNRADxhmi58q4JGMs-J-156">
          <mxGeometry width="50" height="50" relative="1" as="geometry">
            <mxPoint x="120" y="360" as="sourcePoint" />
            <mxPoint x="720" y="360" as="targetPoint" />
          </mxGeometry>
        </mxCell>
        <mxCell id="0MNRADxhmi58q4JGMs-J-137" value="+" style="text;html=1;strokeColor=none;fillColor=none;align=center;verticalAlign=middle;whiteSpace=wrap;rounded=0;dashed=1;dashPattern=1 1;fontSize=13;" vertex="1" parent="1">
          <mxGeometry x="120" y="350" height="20" as="geometry" />
        </mxCell>
        <mxCell id="0MNRADxhmi58q4JGMs-J-138" value="+" style="text;html=1;strokeColor=none;fillColor=none;align=center;verticalAlign=middle;whiteSpace=wrap;rounded=0;dashed=1;dashPattern=1 1;fontSize=13;" vertex="1" parent="1">
          <mxGeometry x="150" y="350" width="20" height="20" as="geometry" />
        </mxCell>
        <mxCell id="0MNRADxhmi58q4JGMs-J-139" value="+" style="text;html=1;strokeColor=none;fillColor=none;align=center;verticalAlign=middle;whiteSpace=wrap;rounded=0;dashed=1;dashPattern=1 1;fontSize=13;" vertex="1" parent="1">
          <mxGeometry x="190" y="350" width="20" height="20" as="geometry" />
        </mxCell>
        <mxCell id="0MNRADxhmi58q4JGMs-J-140" value="+" style="text;html=1;strokeColor=none;fillColor=none;align=center;verticalAlign=middle;whiteSpace=wrap;rounded=0;dashed=1;dashPattern=1 1;fontSize=13;" vertex="1" parent="1">
          <mxGeometry x="230" y="350" width="20" height="20" as="geometry" />
        </mxCell>
        <mxCell id="0MNRADxhmi58q4JGMs-J-141" value="+" style="text;html=1;strokeColor=none;fillColor=none;align=center;verticalAlign=middle;whiteSpace=wrap;rounded=0;dashed=1;dashPattern=1 1;fontSize=13;" vertex="1" parent="1">
          <mxGeometry x="270" y="350" width="20" height="20" as="geometry" />
        </mxCell>
        <mxCell id="0MNRADxhmi58q4JGMs-J-142" value="" style="endArrow=none;dashed=1;html=1;fontSize=13;" edge="1" parent="1" target="0MNRADxhmi58q4JGMs-J-141">
          <mxGeometry width="50" height="50" relative="1" as="geometry">
            <mxPoint x="120" y="360" as="sourcePoint" />
            <mxPoint x="680" y="360" as="targetPoint" />
          </mxGeometry>
        </mxCell>
        <mxCell id="0MNRADxhmi58q4JGMs-J-143" value="+" style="text;html=1;strokeColor=none;fillColor=none;align=center;verticalAlign=middle;whiteSpace=wrap;rounded=0;dashed=1;dashPattern=1 1;fontSize=13;" vertex="1" parent="1">
          <mxGeometry x="310" y="350" width="20" height="20" as="geometry" />
        </mxCell>
        <mxCell id="0MNRADxhmi58q4JGMs-J-144" value="" style="endArrow=none;dashed=1;html=1;fontSize=13;" edge="1" parent="1" source="0MNRADxhmi58q4JGMs-J-141" target="0MNRADxhmi58q4JGMs-J-143">
          <mxGeometry width="50" height="50" relative="1" as="geometry">
            <mxPoint x="290" y="360" as="sourcePoint" />
            <mxPoint x="680" y="360" as="targetPoint" />
          </mxGeometry>
        </mxCell>
        <mxCell id="0MNRADxhmi58q4JGMs-J-145" value="+" style="text;html=1;strokeColor=none;fillColor=none;align=center;verticalAlign=middle;whiteSpace=wrap;rounded=0;dashed=1;dashPattern=1 1;fontSize=13;" vertex="1" parent="1">
          <mxGeometry x="350" y="350" width="20" height="20" as="geometry" />
        </mxCell>
        <mxCell id="0MNRADxhmi58q4JGMs-J-146" value="" style="endArrow=none;dashed=1;html=1;fontSize=13;" edge="1" parent="1" source="0MNRADxhmi58q4JGMs-J-143" target="0MNRADxhmi58q4JGMs-J-145">
          <mxGeometry width="50" height="50" relative="1" as="geometry">
            <mxPoint x="330" y="360" as="sourcePoint" />
            <mxPoint x="680" y="360" as="targetPoint" />
          </mxGeometry>
        </mxCell>
        <mxCell id="0MNRADxhmi58q4JGMs-J-147" value="+" style="text;html=1;strokeColor=none;fillColor=none;align=center;verticalAlign=middle;whiteSpace=wrap;rounded=0;dashed=1;dashPattern=1 1;fontSize=13;" vertex="1" parent="1">
          <mxGeometry x="390" y="350" width="20" height="20" as="geometry" />
        </mxCell>
        <mxCell id="0MNRADxhmi58q4JGMs-J-148" value="+" style="text;html=1;strokeColor=none;fillColor=none;align=center;verticalAlign=middle;whiteSpace=wrap;rounded=0;dashed=1;dashPattern=1 1;fontSize=13;" vertex="1" parent="1">
          <mxGeometry x="430" y="350" width="20" height="20" as="geometry" />
        </mxCell>
        <mxCell id="0MNRADxhmi58q4JGMs-J-149" value="+" style="text;html=1;strokeColor=none;fillColor=none;align=center;verticalAlign=middle;whiteSpace=wrap;rounded=0;dashed=1;dashPattern=1 1;fontSize=13;" vertex="1" parent="1">
          <mxGeometry x="470" y="350" width="20" height="20" as="geometry" />
        </mxCell>
        <mxCell id="0MNRADxhmi58q4JGMs-J-150" value="" style="endArrow=none;dashed=1;html=1;fontSize=13;" edge="1" parent="1" source="0MNRADxhmi58q4JGMs-J-145" target="0MNRADxhmi58q4JGMs-J-149">
          <mxGeometry width="50" height="50" relative="1" as="geometry">
            <mxPoint x="370" y="360" as="sourcePoint" />
            <mxPoint x="680" y="360" as="targetPoint" />
          </mxGeometry>
        </mxCell>
        <mxCell id="0MNRADxhmi58q4JGMs-J-151" value="+" style="text;html=1;strokeColor=none;fillColor=none;align=center;verticalAlign=middle;whiteSpace=wrap;rounded=0;dashed=1;dashPattern=1 1;fontSize=13;" vertex="1" parent="1">
          <mxGeometry x="510" y="350" width="20" height="20" as="geometry" />
        </mxCell>
        <mxCell id="0MNRADxhmi58q4JGMs-J-152" value="+" style="text;html=1;strokeColor=none;fillColor=none;align=center;verticalAlign=middle;whiteSpace=wrap;rounded=0;dashed=1;dashPattern=1 1;fontSize=13;" vertex="1" parent="1">
          <mxGeometry x="550" y="350" width="20" height="20" as="geometry" />
        </mxCell>
        <mxCell id="0MNRADxhmi58q4JGMs-J-153" value="+" style="text;html=1;strokeColor=none;fillColor=none;align=center;verticalAlign=middle;whiteSpace=wrap;rounded=0;dashed=1;dashPattern=1 1;fontSize=13;" vertex="1" parent="1">
          <mxGeometry x="590" y="350" width="20" height="20" as="geometry" />
        </mxCell>
        <mxCell id="0MNRADxhmi58q4JGMs-J-154" value="+" style="text;html=1;strokeColor=none;fillColor=none;align=center;verticalAlign=middle;whiteSpace=wrap;rounded=0;dashed=1;dashPattern=1 1;fontSize=13;" vertex="1" parent="1">
          <mxGeometry x="630" y="350" width="20" height="20" as="geometry" />
        </mxCell>
        <mxCell id="0MNRADxhmi58q4JGMs-J-155" value="" style="endArrow=none;dashed=1;html=1;fontSize=13;" edge="1" parent="1" source="0MNRADxhmi58q4JGMs-J-149" target="0MNRADxhmi58q4JGMs-J-154">
          <mxGeometry width="50" height="50" relative="1" as="geometry">
            <mxPoint x="490" y="360" as="sourcePoint" />
            <mxPoint x="680" y="360" as="targetPoint" />
          </mxGeometry>
        </mxCell>
        <mxCell id="0MNRADxhmi58q4JGMs-J-156" value="+" style="text;html=1;strokeColor=none;fillColor=none;align=center;verticalAlign=middle;whiteSpace=wrap;rounded=0;dashed=1;dashPattern=1 1;fontSize=13;" vertex="1" parent="1">
          <mxGeometry x="710" y="350" width="20" height="20" as="geometry" />
        </mxCell>
        <mxCell id="0MNRADxhmi58q4JGMs-J-157" value="" style="endArrow=none;dashed=1;html=1;fontSize=13;" edge="1" parent="1" source="0MNRADxhmi58q4JGMs-J-158" target="0MNRADxhmi58q4JGMs-J-156">
          <mxGeometry width="50" height="50" relative="1" as="geometry">
            <mxPoint x="650" y="360" as="sourcePoint" />
            <mxPoint x="720" y="360" as="targetPoint" />
          </mxGeometry>
        </mxCell>
        <mxCell id="0MNRADxhmi58q4JGMs-J-158" value="+" style="text;html=1;strokeColor=none;fillColor=none;align=center;verticalAlign=middle;whiteSpace=wrap;rounded=0;dashed=1;dashPattern=1 1;fontSize=13;" vertex="1" parent="1">
          <mxGeometry x="670" y="350" width="20" height="20" as="geometry" />
        </mxCell>
        <mxCell id="0MNRADxhmi58q4JGMs-J-159" value="" style="endArrow=none;dashed=1;html=1;fontSize=13;" edge="1" parent="1" source="0MNRADxhmi58q4JGMs-J-154" target="0MNRADxhmi58q4JGMs-J-158">
          <mxGeometry width="50" height="50" relative="1" as="geometry">
            <mxPoint x="650" y="360" as="sourcePoint" />
            <mxPoint x="710" y="360" as="targetPoint" />
          </mxGeometry>
        </mxCell>
        <mxCell id="0MNRADxhmi58q4JGMs-J-160" value="" style="endArrow=none;dashed=1;html=1;fontSize=13;" edge="1" parent="1" source="0MNRADxhmi58q4JGMs-J-180">
          <mxGeometry width="50" height="50" relative="1" as="geometry">
            <mxPoint x="120" y="400" as="sourcePoint" />
            <mxPoint x="720" y="400" as="targetPoint" />
          </mxGeometry>
        </mxCell>
        <mxCell id="0MNRADxhmi58q4JGMs-J-161" value="+" style="text;html=1;strokeColor=none;fillColor=none;align=center;verticalAlign=middle;whiteSpace=wrap;rounded=0;dashed=1;dashPattern=1 1;fontSize=13;" vertex="1" parent="1">
          <mxGeometry x="120" y="390" height="20" as="geometry" />
        </mxCell>
        <mxCell id="0MNRADxhmi58q4JGMs-J-162" value="+" style="text;html=1;strokeColor=none;fillColor=none;align=center;verticalAlign=middle;whiteSpace=wrap;rounded=0;dashed=1;dashPattern=1 1;fontSize=13;" vertex="1" parent="1">
          <mxGeometry x="150" y="390" width="20" height="20" as="geometry" />
        </mxCell>
        <mxCell id="0MNRADxhmi58q4JGMs-J-163" value="+" style="text;html=1;strokeColor=none;fillColor=none;align=center;verticalAlign=middle;whiteSpace=wrap;rounded=0;dashed=1;dashPattern=1 1;fontSize=13;" vertex="1" parent="1">
          <mxGeometry x="190" y="390" width="20" height="20" as="geometry" />
        </mxCell>
        <mxCell id="0MNRADxhmi58q4JGMs-J-164" value="+" style="text;html=1;strokeColor=none;fillColor=none;align=center;verticalAlign=middle;whiteSpace=wrap;rounded=0;dashed=1;dashPattern=1 1;fontSize=13;" vertex="1" parent="1">
          <mxGeometry x="230" y="390" width="20" height="20" as="geometry" />
        </mxCell>
        <mxCell id="0MNRADxhmi58q4JGMs-J-165" value="+" style="text;html=1;strokeColor=none;fillColor=none;align=center;verticalAlign=middle;whiteSpace=wrap;rounded=0;dashed=1;dashPattern=1 1;fontSize=13;" vertex="1" parent="1">
          <mxGeometry x="270" y="390" width="20" height="20" as="geometry" />
        </mxCell>
        <mxCell id="0MNRADxhmi58q4JGMs-J-166" value="" style="endArrow=none;dashed=1;html=1;fontSize=13;" edge="1" parent="1" target="0MNRADxhmi58q4JGMs-J-165">
          <mxGeometry width="50" height="50" relative="1" as="geometry">
            <mxPoint x="120" y="400" as="sourcePoint" />
            <mxPoint x="680" y="400" as="targetPoint" />
          </mxGeometry>
        </mxCell>
        <mxCell id="0MNRADxhmi58q4JGMs-J-167" value="+" style="text;html=1;strokeColor=none;fillColor=none;align=center;verticalAlign=middle;whiteSpace=wrap;rounded=0;dashed=1;dashPattern=1 1;fontSize=13;" vertex="1" parent="1">
          <mxGeometry x="310" y="390" width="20" height="20" as="geometry" />
        </mxCell>
        <mxCell id="0MNRADxhmi58q4JGMs-J-168" value="" style="endArrow=none;dashed=1;html=1;fontSize=13;" edge="1" parent="1" source="0MNRADxhmi58q4JGMs-J-165" target="0MNRADxhmi58q4JGMs-J-167">
          <mxGeometry width="50" height="50" relative="1" as="geometry">
            <mxPoint x="290" y="400" as="sourcePoint" />
            <mxPoint x="680" y="400" as="targetPoint" />
          </mxGeometry>
        </mxCell>
        <mxCell id="0MNRADxhmi58q4JGMs-J-169" value="+" style="text;html=1;strokeColor=none;fillColor=none;align=center;verticalAlign=middle;whiteSpace=wrap;rounded=0;dashed=1;dashPattern=1 1;fontSize=13;" vertex="1" parent="1">
          <mxGeometry x="350" y="390" width="20" height="20" as="geometry" />
        </mxCell>
        <mxCell id="0MNRADxhmi58q4JGMs-J-170" value="" style="endArrow=none;dashed=1;html=1;fontSize=13;" edge="1" parent="1" source="0MNRADxhmi58q4JGMs-J-167" target="0MNRADxhmi58q4JGMs-J-169">
          <mxGeometry width="50" height="50" relative="1" as="geometry">
            <mxPoint x="330" y="400" as="sourcePoint" />
            <mxPoint x="680" y="400" as="targetPoint" />
          </mxGeometry>
        </mxCell>
        <mxCell id="0MNRADxhmi58q4JGMs-J-171" value="+" style="text;html=1;strokeColor=none;fillColor=none;align=center;verticalAlign=middle;whiteSpace=wrap;rounded=0;dashed=1;dashPattern=1 1;fontSize=13;" vertex="1" parent="1">
          <mxGeometry x="390" y="390" width="20" height="20" as="geometry" />
        </mxCell>
        <mxCell id="0MNRADxhmi58q4JGMs-J-172" value="+" style="text;html=1;strokeColor=none;fillColor=none;align=center;verticalAlign=middle;whiteSpace=wrap;rounded=0;dashed=1;dashPattern=1 1;fontSize=13;" vertex="1" parent="1">
          <mxGeometry x="430" y="390" width="20" height="20" as="geometry" />
        </mxCell>
        <mxCell id="0MNRADxhmi58q4JGMs-J-173" value="+" style="text;html=1;strokeColor=none;fillColor=none;align=center;verticalAlign=middle;whiteSpace=wrap;rounded=0;dashed=1;dashPattern=1 1;fontSize=13;" vertex="1" parent="1">
          <mxGeometry x="470" y="390" width="20" height="20" as="geometry" />
        </mxCell>
        <mxCell id="0MNRADxhmi58q4JGMs-J-174" value="" style="endArrow=none;dashed=1;html=1;fontSize=13;" edge="1" parent="1" source="0MNRADxhmi58q4JGMs-J-169" target="0MNRADxhmi58q4JGMs-J-173">
          <mxGeometry width="50" height="50" relative="1" as="geometry">
            <mxPoint x="370" y="400" as="sourcePoint" />
            <mxPoint x="680" y="400" as="targetPoint" />
          </mxGeometry>
        </mxCell>
        <mxCell id="0MNRADxhmi58q4JGMs-J-175" value="+" style="text;html=1;strokeColor=none;fillColor=none;align=center;verticalAlign=middle;whiteSpace=wrap;rounded=0;dashed=1;dashPattern=1 1;fontSize=13;" vertex="1" parent="1">
          <mxGeometry x="510" y="390" width="20" height="20" as="geometry" />
        </mxCell>
        <mxCell id="0MNRADxhmi58q4JGMs-J-176" value="+" style="text;html=1;strokeColor=none;fillColor=none;align=center;verticalAlign=middle;whiteSpace=wrap;rounded=0;dashed=1;dashPattern=1 1;fontSize=13;" vertex="1" parent="1">
          <mxGeometry x="550" y="390" width="20" height="20" as="geometry" />
        </mxCell>
        <mxCell id="0MNRADxhmi58q4JGMs-J-177" value="+" style="text;html=1;strokeColor=none;fillColor=none;align=center;verticalAlign=middle;whiteSpace=wrap;rounded=0;dashed=1;dashPattern=1 1;fontSize=13;" vertex="1" parent="1">
          <mxGeometry x="590" y="390" width="20" height="20" as="geometry" />
        </mxCell>
        <mxCell id="0MNRADxhmi58q4JGMs-J-178" value="+" style="text;html=1;strokeColor=none;fillColor=none;align=center;verticalAlign=middle;whiteSpace=wrap;rounded=0;dashed=1;dashPattern=1 1;fontSize=13;" vertex="1" parent="1">
          <mxGeometry x="630" y="390" width="20" height="20" as="geometry" />
        </mxCell>
        <mxCell id="0MNRADxhmi58q4JGMs-J-179" value="" style="endArrow=none;dashed=1;html=1;fontSize=13;" edge="1" parent="1" source="0MNRADxhmi58q4JGMs-J-173" target="0MNRADxhmi58q4JGMs-J-178">
          <mxGeometry width="50" height="50" relative="1" as="geometry">
            <mxPoint x="490" y="400" as="sourcePoint" />
            <mxPoint x="680" y="400" as="targetPoint" />
          </mxGeometry>
        </mxCell>
        <mxCell id="0MNRADxhmi58q4JGMs-J-180" value="+" style="text;html=1;strokeColor=none;fillColor=none;align=center;verticalAlign=middle;whiteSpace=wrap;rounded=0;dashed=1;dashPattern=1 1;fontSize=13;" vertex="1" parent="1">
          <mxGeometry x="710" y="390" width="20" height="20" as="geometry" />
        </mxCell>
        <mxCell id="0MNRADxhmi58q4JGMs-J-181" value="" style="endArrow=none;dashed=1;html=1;fontSize=13;" edge="1" parent="1" source="0MNRADxhmi58q4JGMs-J-182" target="0MNRADxhmi58q4JGMs-J-180">
          <mxGeometry width="50" height="50" relative="1" as="geometry">
            <mxPoint x="650" y="400" as="sourcePoint" />
            <mxPoint x="720" y="400" as="targetPoint" />
          </mxGeometry>
        </mxCell>
        <mxCell id="0MNRADxhmi58q4JGMs-J-182" value="+" style="text;html=1;strokeColor=none;fillColor=none;align=center;verticalAlign=middle;whiteSpace=wrap;rounded=0;dashed=1;dashPattern=1 1;fontSize=13;" vertex="1" parent="1">
          <mxGeometry x="670" y="390" width="20" height="20" as="geometry" />
        </mxCell>
        <mxCell id="0MNRADxhmi58q4JGMs-J-183" value="" style="endArrow=none;dashed=1;html=1;fontSize=13;" edge="1" parent="1" source="0MNRADxhmi58q4JGMs-J-178" target="0MNRADxhmi58q4JGMs-J-182">
          <mxGeometry width="50" height="50" relative="1" as="geometry">
            <mxPoint x="650" y="400" as="sourcePoint" />
            <mxPoint x="710" y="400" as="targetPoint" />
          </mxGeometry>
        </mxCell>
        <mxCell id="0MNRADxhmi58q4JGMs-J-184" value="" style="endArrow=none;dashed=1;html=1;fontSize=13;" edge="1" parent="1" source="0MNRADxhmi58q4JGMs-J-204">
          <mxGeometry width="50" height="50" relative="1" as="geometry">
            <mxPoint x="120" y="440" as="sourcePoint" />
            <mxPoint x="720" y="440" as="targetPoint" />
          </mxGeometry>
        </mxCell>
        <mxCell id="0MNRADxhmi58q4JGMs-J-185" value="+" style="text;html=1;strokeColor=none;fillColor=none;align=center;verticalAlign=middle;whiteSpace=wrap;rounded=0;dashed=1;dashPattern=1 1;fontSize=13;" vertex="1" parent="1">
          <mxGeometry x="120" y="430" height="20" as="geometry" />
        </mxCell>
        <mxCell id="0MNRADxhmi58q4JGMs-J-186" value="+" style="text;html=1;strokeColor=none;fillColor=none;align=center;verticalAlign=middle;whiteSpace=wrap;rounded=0;dashed=1;dashPattern=1 1;fontSize=13;" vertex="1" parent="1">
          <mxGeometry x="150" y="430" width="20" height="20" as="geometry" />
        </mxCell>
        <mxCell id="0MNRADxhmi58q4JGMs-J-187" value="+" style="text;html=1;strokeColor=none;fillColor=none;align=center;verticalAlign=middle;whiteSpace=wrap;rounded=0;dashed=1;dashPattern=1 1;fontSize=13;" vertex="1" parent="1">
          <mxGeometry x="190" y="430" width="20" height="20" as="geometry" />
        </mxCell>
        <mxCell id="0MNRADxhmi58q4JGMs-J-188" value="+" style="text;html=1;strokeColor=none;fillColor=none;align=center;verticalAlign=middle;whiteSpace=wrap;rounded=0;dashed=1;dashPattern=1 1;fontSize=13;" vertex="1" parent="1">
          <mxGeometry x="230" y="430" width="20" height="20" as="geometry" />
        </mxCell>
        <mxCell id="0MNRADxhmi58q4JGMs-J-189" value="+" style="text;html=1;strokeColor=none;fillColor=none;align=center;verticalAlign=middle;whiteSpace=wrap;rounded=0;dashed=1;dashPattern=1 1;fontSize=13;" vertex="1" parent="1">
          <mxGeometry x="270" y="430" width="20" height="20" as="geometry" />
        </mxCell>
        <mxCell id="0MNRADxhmi58q4JGMs-J-190" value="" style="endArrow=none;dashed=1;html=1;fontSize=13;" edge="1" parent="1" target="0MNRADxhmi58q4JGMs-J-189">
          <mxGeometry width="50" height="50" relative="1" as="geometry">
            <mxPoint x="120" y="440" as="sourcePoint" />
            <mxPoint x="680" y="440" as="targetPoint" />
          </mxGeometry>
        </mxCell>
        <mxCell id="0MNRADxhmi58q4JGMs-J-191" value="+" style="text;html=1;strokeColor=none;fillColor=none;align=center;verticalAlign=middle;whiteSpace=wrap;rounded=0;dashed=1;dashPattern=1 1;fontSize=13;" vertex="1" parent="1">
          <mxGeometry x="310" y="430" width="20" height="20" as="geometry" />
        </mxCell>
        <mxCell id="0MNRADxhmi58q4JGMs-J-192" value="" style="endArrow=none;dashed=1;html=1;fontSize=13;" edge="1" parent="1" source="0MNRADxhmi58q4JGMs-J-189" target="0MNRADxhmi58q4JGMs-J-191">
          <mxGeometry width="50" height="50" relative="1" as="geometry">
            <mxPoint x="290" y="440" as="sourcePoint" />
            <mxPoint x="680" y="440" as="targetPoint" />
          </mxGeometry>
        </mxCell>
        <mxCell id="0MNRADxhmi58q4JGMs-J-193" value="+" style="text;html=1;strokeColor=none;fillColor=none;align=center;verticalAlign=middle;whiteSpace=wrap;rounded=0;dashed=1;dashPattern=1 1;fontSize=13;" vertex="1" parent="1">
          <mxGeometry x="350" y="430" width="20" height="20" as="geometry" />
        </mxCell>
        <mxCell id="0MNRADxhmi58q4JGMs-J-194" value="" style="endArrow=none;dashed=1;html=1;fontSize=13;" edge="1" parent="1" source="0MNRADxhmi58q4JGMs-J-191" target="0MNRADxhmi58q4JGMs-J-193">
          <mxGeometry width="50" height="50" relative="1" as="geometry">
            <mxPoint x="330" y="440" as="sourcePoint" />
            <mxPoint x="680" y="440" as="targetPoint" />
          </mxGeometry>
        </mxCell>
        <mxCell id="0MNRADxhmi58q4JGMs-J-195" value="+" style="text;html=1;strokeColor=none;fillColor=none;align=center;verticalAlign=middle;whiteSpace=wrap;rounded=0;dashed=1;dashPattern=1 1;fontSize=13;" vertex="1" parent="1">
          <mxGeometry x="390" y="430" width="20" height="20" as="geometry" />
        </mxCell>
        <mxCell id="0MNRADxhmi58q4JGMs-J-196" value="+" style="text;html=1;strokeColor=none;fillColor=none;align=center;verticalAlign=middle;whiteSpace=wrap;rounded=0;dashed=1;dashPattern=1 1;fontSize=13;" vertex="1" parent="1">
          <mxGeometry x="430" y="430" width="20" height="20" as="geometry" />
        </mxCell>
        <mxCell id="0MNRADxhmi58q4JGMs-J-197" value="+" style="text;html=1;strokeColor=none;fillColor=none;align=center;verticalAlign=middle;whiteSpace=wrap;rounded=0;dashed=1;dashPattern=1 1;fontSize=13;" vertex="1" parent="1">
          <mxGeometry x="470" y="430" width="20" height="20" as="geometry" />
        </mxCell>
        <mxCell id="0MNRADxhmi58q4JGMs-J-198" value="" style="endArrow=none;dashed=1;html=1;fontSize=13;" edge="1" parent="1" source="0MNRADxhmi58q4JGMs-J-193" target="0MNRADxhmi58q4JGMs-J-197">
          <mxGeometry width="50" height="50" relative="1" as="geometry">
            <mxPoint x="370" y="440" as="sourcePoint" />
            <mxPoint x="680" y="440" as="targetPoint" />
          </mxGeometry>
        </mxCell>
        <mxCell id="0MNRADxhmi58q4JGMs-J-199" value="+" style="text;html=1;strokeColor=none;fillColor=none;align=center;verticalAlign=middle;whiteSpace=wrap;rounded=0;dashed=1;dashPattern=1 1;fontSize=13;" vertex="1" parent="1">
          <mxGeometry x="510" y="430" width="20" height="20" as="geometry" />
        </mxCell>
        <mxCell id="0MNRADxhmi58q4JGMs-J-200" value="+" style="text;html=1;strokeColor=none;fillColor=none;align=center;verticalAlign=middle;whiteSpace=wrap;rounded=0;dashed=1;dashPattern=1 1;fontSize=13;" vertex="1" parent="1">
          <mxGeometry x="550" y="430" width="20" height="20" as="geometry" />
        </mxCell>
        <mxCell id="0MNRADxhmi58q4JGMs-J-201" value="+" style="text;html=1;strokeColor=none;fillColor=none;align=center;verticalAlign=middle;whiteSpace=wrap;rounded=0;dashed=1;dashPattern=1 1;fontSize=13;" vertex="1" parent="1">
          <mxGeometry x="590" y="430" width="20" height="20" as="geometry" />
        </mxCell>
        <mxCell id="0MNRADxhmi58q4JGMs-J-202" value="+" style="text;html=1;strokeColor=none;fillColor=none;align=center;verticalAlign=middle;whiteSpace=wrap;rounded=0;dashed=1;dashPattern=1 1;fontSize=13;" vertex="1" parent="1">
          <mxGeometry x="630" y="430" width="20" height="20" as="geometry" />
        </mxCell>
        <mxCell id="0MNRADxhmi58q4JGMs-J-203" value="" style="endArrow=none;dashed=1;html=1;fontSize=13;" edge="1" parent="1" source="0MNRADxhmi58q4JGMs-J-197" target="0MNRADxhmi58q4JGMs-J-202">
          <mxGeometry width="50" height="50" relative="1" as="geometry">
            <mxPoint x="490" y="440" as="sourcePoint" />
            <mxPoint x="680" y="440" as="targetPoint" />
          </mxGeometry>
        </mxCell>
        <mxCell id="0MNRADxhmi58q4JGMs-J-204" value="+" style="text;html=1;strokeColor=none;fillColor=none;align=center;verticalAlign=middle;whiteSpace=wrap;rounded=0;dashed=1;dashPattern=1 1;fontSize=13;" vertex="1" parent="1">
          <mxGeometry x="710" y="430" width="20" height="20" as="geometry" />
        </mxCell>
        <mxCell id="0MNRADxhmi58q4JGMs-J-205" value="" style="endArrow=none;dashed=1;html=1;fontSize=13;" edge="1" parent="1" source="0MNRADxhmi58q4JGMs-J-206" target="0MNRADxhmi58q4JGMs-J-204">
          <mxGeometry width="50" height="50" relative="1" as="geometry">
            <mxPoint x="650" y="440" as="sourcePoint" />
            <mxPoint x="720" y="440" as="targetPoint" />
          </mxGeometry>
        </mxCell>
        <mxCell id="0MNRADxhmi58q4JGMs-J-206" value="+" style="text;html=1;strokeColor=none;fillColor=none;align=center;verticalAlign=middle;whiteSpace=wrap;rounded=0;dashed=1;dashPattern=1 1;fontSize=13;" vertex="1" parent="1">
          <mxGeometry x="670" y="430" width="20" height="20" as="geometry" />
        </mxCell>
        <mxCell id="0MNRADxhmi58q4JGMs-J-207" value="" style="endArrow=none;dashed=1;html=1;fontSize=13;" edge="1" parent="1" source="0MNRADxhmi58q4JGMs-J-202" target="0MNRADxhmi58q4JGMs-J-206">
          <mxGeometry width="50" height="50" relative="1" as="geometry">
            <mxPoint x="650" y="440" as="sourcePoint" />
            <mxPoint x="710" y="440" as="targetPoint" />
          </mxGeometry>
        </mxCell>
        <mxCell id="0MNRADxhmi58q4JGMs-J-208" value="" style="endArrow=none;dashed=1;html=1;fontSize=13;entryX=0;entryY=0;entryDx=0;entryDy=0;" edge="1" parent="1" target="0MNRADxhmi58q4JGMs-J-2">
          <mxGeometry width="50" height="50" relative="1" as="geometry">
            <mxPoint x="120" y="440" as="sourcePoint" />
            <mxPoint x="440" y="370" as="targetPoint" />
          </mxGeometry>
        </mxCell>
        <mxCell id="0MNRADxhmi58q4JGMs-J-210" value="0" style="text;html=1;strokeColor=none;fillColor=none;align=center;verticalAlign=middle;whiteSpace=wrap;rounded=0;dashed=1;dashPattern=1 1;fontSize=13;" vertex="1" parent="1">
          <mxGeometry x="120" y="180" width="30" height="20" as="geometry" />
        </mxCell>
        <mxCell id="0MNRADxhmi58q4JGMs-J-212" value="1" style="text;html=1;strokeColor=none;fillColor=none;align=center;verticalAlign=middle;whiteSpace=wrap;rounded=0;dashed=1;dashPattern=1 1;fontSize=13;" vertex="1" parent="1">
          <mxGeometry x="160" y="180" width="30" height="20" as="geometry" />
        </mxCell>
        <mxCell id="0MNRADxhmi58q4JGMs-J-213" value="2" style="text;html=1;strokeColor=none;fillColor=none;align=center;verticalAlign=middle;whiteSpace=wrap;rounded=0;dashed=1;dashPattern=1 1;fontSize=13;" vertex="1" parent="1">
          <mxGeometry x="200" y="180" width="30" height="20" as="geometry" />
        </mxCell>
        <mxCell id="0MNRADxhmi58q4JGMs-J-214" value="3" style="text;html=1;strokeColor=none;fillColor=none;align=center;verticalAlign=middle;whiteSpace=wrap;rounded=0;dashed=1;dashPattern=1 1;fontSize=13;" vertex="1" parent="1">
          <mxGeometry x="240" y="180" width="30" height="20" as="geometry" />
        </mxCell>
        <mxCell id="0MNRADxhmi58q4JGMs-J-215" value="4" style="text;html=1;strokeColor=none;fillColor=none;align=center;verticalAlign=middle;whiteSpace=wrap;rounded=0;dashed=1;dashPattern=1 1;fontSize=13;" vertex="1" parent="1">
          <mxGeometry x="280" y="180" width="30" height="20" as="geometry" />
        </mxCell>
        <mxCell id="0MNRADxhmi58q4JGMs-J-216" value="5" style="text;html=1;strokeColor=none;fillColor=none;align=center;verticalAlign=middle;whiteSpace=wrap;rounded=0;dashed=1;dashPattern=1 1;fontSize=13;" vertex="1" parent="1">
          <mxGeometry x="320" y="180" width="30" height="20" as="geometry" />
        </mxCell>
        <mxCell id="0MNRADxhmi58q4JGMs-J-217" value="6" style="text;html=1;strokeColor=none;fillColor=none;align=center;verticalAlign=middle;whiteSpace=wrap;rounded=0;dashed=1;dashPattern=1 1;fontSize=13;" vertex="1" parent="1">
          <mxGeometry x="360" y="180" width="30" height="20" as="geometry" />
        </mxCell>
        <mxCell id="0MNRADxhmi58q4JGMs-J-218" value="7" style="text;html=1;strokeColor=none;fillColor=none;align=center;verticalAlign=middle;whiteSpace=wrap;rounded=0;dashed=1;dashPattern=1 1;fontSize=13;" vertex="1" parent="1">
          <mxGeometry x="400" y="180" width="30" height="20" as="geometry" />
        </mxCell>
        <mxCell id="0MNRADxhmi58q4JGMs-J-219" value="8" style="text;html=1;strokeColor=none;fillColor=none;align=center;verticalAlign=middle;whiteSpace=wrap;rounded=0;dashed=1;dashPattern=1 1;fontSize=13;" vertex="1" parent="1">
          <mxGeometry x="440" y="180" width="30" height="20" as="geometry" />
        </mxCell>
        <mxCell id="0MNRADxhmi58q4JGMs-J-220" value="9" style="text;html=1;strokeColor=none;fillColor=none;align=center;verticalAlign=middle;whiteSpace=wrap;rounded=0;dashed=1;dashPattern=1 1;fontSize=13;" vertex="1" parent="1">
          <mxGeometry x="480" y="180" width="30" height="20" as="geometry" />
        </mxCell>
        <mxCell id="0MNRADxhmi58q4JGMs-J-221" value="0" style="text;html=1;strokeColor=none;fillColor=none;align=center;verticalAlign=middle;whiteSpace=wrap;rounded=0;dashed=1;dashPattern=1 1;fontSize=13;" vertex="1" parent="1">
          <mxGeometry x="520" y="180" width="30" height="20" as="geometry" />
        </mxCell>
        <mxCell id="0MNRADxhmi58q4JGMs-J-222" value="1" style="text;html=1;strokeColor=none;fillColor=none;align=center;verticalAlign=middle;whiteSpace=wrap;rounded=0;dashed=1;dashPattern=1 1;fontSize=13;" vertex="1" parent="1">
          <mxGeometry x="560" y="180" width="30" height="20" as="geometry" />
        </mxCell>
        <mxCell id="0MNRADxhmi58q4JGMs-J-223" value="2" style="text;html=1;strokeColor=none;fillColor=none;align=center;verticalAlign=middle;whiteSpace=wrap;rounded=0;dashed=1;dashPattern=1 1;fontSize=13;" vertex="1" parent="1">
          <mxGeometry x="600" y="180" width="30" height="20" as="geometry" />
        </mxCell>
        <mxCell id="0MNRADxhmi58q4JGMs-J-224" value="3" style="text;html=1;strokeColor=none;fillColor=none;align=center;verticalAlign=middle;whiteSpace=wrap;rounded=0;dashed=1;dashPattern=1 1;fontSize=13;" vertex="1" parent="1">
          <mxGeometry x="640" y="180" width="30" height="20" as="geometry" />
        </mxCell>
        <mxCell id="0MNRADxhmi58q4JGMs-J-225" value="4" style="text;html=1;strokeColor=none;fillColor=none;align=center;verticalAlign=middle;whiteSpace=wrap;rounded=0;dashed=1;dashPattern=1 1;fontSize=13;" vertex="1" parent="1">
          <mxGeometry x="680" y="180" width="30" height="20" as="geometry" />
        </mxCell>
        <mxCell id="0MNRADxhmi58q4JGMs-J-255" value="" style="endArrow=none;dashed=1;html=1;fontSize=13;" edge="1" parent="1">
          <mxGeometry width="50" height="50" relative="1" as="geometry">
            <mxPoint x="770" y="200" as="sourcePoint" />
            <mxPoint x="760" y="200" as="targetPoint" />
          </mxGeometry>
        </mxCell>
        <mxCell id="0MNRADxhmi58q4JGMs-J-257" value="" style="endArrow=none;dashed=1;html=1;fontSize=13;" edge="1" parent="1">
          <mxGeometry width="50" height="50" relative="1" as="geometry">
            <mxPoint x="730" y="200" as="sourcePoint" />
            <mxPoint x="750" y="200" as="targetPoint" />
          </mxGeometry>
        </mxCell>
        <mxCell id="0MNRADxhmi58q4JGMs-J-258" value="" style="endArrow=none;dashed=1;html=1;fontSize=13;" edge="1" parent="1" source="0MNRADxhmi58q4JGMs-J-259">
          <mxGeometry width="50" height="50" relative="1" as="geometry">
            <mxPoint x="160" y="240" as="sourcePoint" />
            <mxPoint x="760" y="240" as="targetPoint" />
          </mxGeometry>
        </mxCell>
        <mxCell id="0MNRADxhmi58q4JGMs-J-259" value="+" style="text;html=1;strokeColor=none;fillColor=none;align=center;verticalAlign=middle;whiteSpace=wrap;rounded=0;dashed=1;dashPattern=1 1;fontSize=13;" vertex="1" parent="1">
          <mxGeometry x="750" y="230" width="20" height="20" as="geometry" />
        </mxCell>
        <mxCell id="0MNRADxhmi58q4JGMs-J-260" value="" style="endArrow=none;dashed=1;html=1;fontSize=13;" edge="1" parent="1" target="0MNRADxhmi58q4JGMs-J-259">
          <mxGeometry width="50" height="50" relative="1" as="geometry">
            <mxPoint x="730" y="240" as="sourcePoint" />
            <mxPoint x="760" y="240" as="targetPoint" />
          </mxGeometry>
        </mxCell>
        <mxCell id="0MNRADxhmi58q4JGMs-J-261" value="" style="endArrow=none;dashed=1;html=1;fontSize=13;" edge="1" parent="1" source="0MNRADxhmi58q4JGMs-J-262">
          <mxGeometry width="50" height="50" relative="1" as="geometry">
            <mxPoint x="160" y="280" as="sourcePoint" />
            <mxPoint x="760" y="280" as="targetPoint" />
          </mxGeometry>
        </mxCell>
        <mxCell id="0MNRADxhmi58q4JGMs-J-262" value="+" style="text;html=1;strokeColor=none;fillColor=none;align=center;verticalAlign=middle;whiteSpace=wrap;rounded=0;dashed=1;dashPattern=1 1;fontSize=13;" vertex="1" parent="1">
          <mxGeometry x="750" y="270" width="20" height="20" as="geometry" />
        </mxCell>
        <mxCell id="0MNRADxhmi58q4JGMs-J-263" value="" style="endArrow=none;dashed=1;html=1;fontSize=13;" edge="1" parent="1" target="0MNRADxhmi58q4JGMs-J-262">
          <mxGeometry width="50" height="50" relative="1" as="geometry">
            <mxPoint x="730" y="280" as="sourcePoint" />
            <mxPoint x="760" y="280" as="targetPoint" />
          </mxGeometry>
        </mxCell>
        <mxCell id="0MNRADxhmi58q4JGMs-J-264" value="" style="endArrow=none;dashed=1;html=1;fontSize=13;" edge="1" parent="1" source="0MNRADxhmi58q4JGMs-J-265">
          <mxGeometry width="50" height="50" relative="1" as="geometry">
            <mxPoint x="160" y="320" as="sourcePoint" />
            <mxPoint x="760" y="320" as="targetPoint" />
          </mxGeometry>
        </mxCell>
        <mxCell id="0MNRADxhmi58q4JGMs-J-265" value="+" style="text;html=1;strokeColor=none;fillColor=none;align=center;verticalAlign=middle;whiteSpace=wrap;rounded=0;dashed=1;dashPattern=1 1;fontSize=13;" vertex="1" parent="1">
          <mxGeometry x="750" y="310" width="20" height="20" as="geometry" />
        </mxCell>
        <mxCell id="0MNRADxhmi58q4JGMs-J-266" value="" style="endArrow=none;dashed=1;html=1;fontSize=13;" edge="1" parent="1" target="0MNRADxhmi58q4JGMs-J-265">
          <mxGeometry width="50" height="50" relative="1" as="geometry">
            <mxPoint x="730" y="320" as="sourcePoint" />
            <mxPoint x="760" y="320" as="targetPoint" />
          </mxGeometry>
        </mxCell>
        <mxCell id="0MNRADxhmi58q4JGMs-J-267" value="" style="endArrow=none;dashed=1;html=1;fontSize=13;" edge="1" parent="1" source="0MNRADxhmi58q4JGMs-J-268">
          <mxGeometry width="50" height="50" relative="1" as="geometry">
            <mxPoint x="160" y="360" as="sourcePoint" />
            <mxPoint x="760" y="360" as="targetPoint" />
          </mxGeometry>
        </mxCell>
        <mxCell id="0MNRADxhmi58q4JGMs-J-268" value="+" style="text;html=1;strokeColor=none;fillColor=none;align=center;verticalAlign=middle;whiteSpace=wrap;rounded=0;dashed=1;dashPattern=1 1;fontSize=13;" vertex="1" parent="1">
          <mxGeometry x="750" y="350" width="20" height="20" as="geometry" />
        </mxCell>
        <mxCell id="0MNRADxhmi58q4JGMs-J-269" value="" style="endArrow=none;dashed=1;html=1;fontSize=13;" edge="1" parent="1" target="0MNRADxhmi58q4JGMs-J-268">
          <mxGeometry width="50" height="50" relative="1" as="geometry">
            <mxPoint x="730" y="360" as="sourcePoint" />
            <mxPoint x="760" y="360" as="targetPoint" />
          </mxGeometry>
        </mxCell>
        <mxCell id="0MNRADxhmi58q4JGMs-J-270" value="" style="endArrow=none;dashed=1;html=1;fontSize=13;" edge="1" parent="1" source="0MNRADxhmi58q4JGMs-J-271">
          <mxGeometry width="50" height="50" relative="1" as="geometry">
            <mxPoint x="160" y="400" as="sourcePoint" />
            <mxPoint x="760" y="400" as="targetPoint" />
          </mxGeometry>
        </mxCell>
        <mxCell id="0MNRADxhmi58q4JGMs-J-271" value="+" style="text;html=1;strokeColor=none;fillColor=none;align=center;verticalAlign=middle;whiteSpace=wrap;rounded=0;dashed=1;dashPattern=1 1;fontSize=13;" vertex="1" parent="1">
          <mxGeometry x="750" y="390" width="20" height="20" as="geometry" />
        </mxCell>
        <mxCell id="0MNRADxhmi58q4JGMs-J-272" value="" style="endArrow=none;dashed=1;html=1;fontSize=13;" edge="1" parent="1" target="0MNRADxhmi58q4JGMs-J-271">
          <mxGeometry width="50" height="50" relative="1" as="geometry">
            <mxPoint x="730" y="400" as="sourcePoint" />
            <mxPoint x="760" y="400" as="targetPoint" />
          </mxGeometry>
        </mxCell>
        <mxCell id="0MNRADxhmi58q4JGMs-J-273" value="" style="endArrow=none;dashed=1;html=1;fontSize=13;" edge="1" parent="1" source="0MNRADxhmi58q4JGMs-J-274">
          <mxGeometry width="50" height="50" relative="1" as="geometry">
            <mxPoint x="160" y="440" as="sourcePoint" />
            <mxPoint x="760" y="440" as="targetPoint" />
          </mxGeometry>
        </mxCell>
        <mxCell id="0MNRADxhmi58q4JGMs-J-274" value="+" style="text;html=1;strokeColor=none;fillColor=none;align=center;verticalAlign=middle;whiteSpace=wrap;rounded=0;dashed=1;dashPattern=1 1;fontSize=13;" vertex="1" parent="1">
          <mxGeometry x="750" y="430" width="20" height="20" as="geometry" />
        </mxCell>
        <mxCell id="0MNRADxhmi58q4JGMs-J-275" value="" style="endArrow=none;dashed=1;html=1;fontSize=13;" edge="1" parent="1" target="0MNRADxhmi58q4JGMs-J-274">
          <mxGeometry width="50" height="50" relative="1" as="geometry">
            <mxPoint x="730" y="440" as="sourcePoint" />
            <mxPoint x="760" y="440" as="targetPoint" />
          </mxGeometry>
        </mxCell>
        <mxCell id="0MNRADxhmi58q4JGMs-J-276" value="" style="endArrow=none;dashed=1;html=1;fontSize=13;entryX=0;entryY=0;entryDx=0;entryDy=0;" edge="1" parent="1">
          <mxGeometry width="50" height="50" relative="1" as="geometry">
            <mxPoint x="759.67" y="440" as="sourcePoint" />
            <mxPoint x="759.67" y="200" as="targetPoint" />
          </mxGeometry>
        </mxCell>
        <mxCell id="0MNRADxhmi58q4JGMs-J-277" value="5" style="text;html=1;strokeColor=none;fillColor=none;align=center;verticalAlign=middle;whiteSpace=wrap;rounded=0;dashed=1;dashPattern=1 1;fontSize=13;" vertex="1" parent="1">
          <mxGeometry x="720" y="180" width="30" height="20" as="geometry" />
        </mxCell>
        <mxCell id="0MNRADxhmi58q4JGMs-J-278" value="1" style="text;html=1;strokeColor=none;fillColor=none;align=center;verticalAlign=middle;whiteSpace=wrap;rounded=0;dashed=1;dashPattern=1 1;fontSize=13;" vertex="1" parent="1">
          <mxGeometry x="520" y="160" width="30" height="20" as="geometry" />
        </mxCell>
        <mxCell id="0MNRADxhmi58q4JGMs-J-279" value="1" style="text;html=1;strokeColor=none;fillColor=none;align=center;verticalAlign=middle;whiteSpace=wrap;rounded=0;dashed=1;dashPattern=1 1;fontSize=13;" vertex="1" parent="1">
          <mxGeometry x="560" y="160" width="30" height="20" as="geometry" />
        </mxCell>
        <mxCell id="0MNRADxhmi58q4JGMs-J-280" value="1" style="text;html=1;strokeColor=none;fillColor=none;align=center;verticalAlign=middle;whiteSpace=wrap;rounded=0;dashed=1;dashPattern=1 1;fontSize=13;" vertex="1" parent="1">
          <mxGeometry x="600" y="160" width="30" height="20" as="geometry" />
        </mxCell>
        <mxCell id="0MNRADxhmi58q4JGMs-J-281" value="1" style="text;html=1;strokeColor=none;fillColor=none;align=center;verticalAlign=middle;whiteSpace=wrap;rounded=0;dashed=1;dashPattern=1 1;fontSize=13;" vertex="1" parent="1">
          <mxGeometry x="640" y="160" width="30" height="20" as="geometry" />
        </mxCell>
        <mxCell id="0MNRADxhmi58q4JGMs-J-282" value="1" style="text;html=1;strokeColor=none;fillColor=none;align=center;verticalAlign=middle;whiteSpace=wrap;rounded=0;dashed=1;dashPattern=1 1;fontSize=13;" vertex="1" parent="1">
          <mxGeometry x="680" y="160" width="30" height="20" as="geometry" />
        </mxCell>
        <mxCell id="0MNRADxhmi58q4JGMs-J-283" value="1" style="text;html=1;strokeColor=none;fillColor=none;align=center;verticalAlign=middle;whiteSpace=wrap;rounded=0;dashed=1;dashPattern=1 1;fontSize=13;" vertex="1" parent="1">
          <mxGeometry x="720" y="160" width="30" height="20" as="geometry" />
        </mxCell>
        <mxCell id="0MNRADxhmi58q4JGMs-J-284" value="RDLENGTH" style="text;html=1;strokeColor=none;fillColor=none;align=center;verticalAlign=middle;whiteSpace=wrap;rounded=0;dashed=1;dashPattern=1 1;fontSize=13;" vertex="1" parent="1">
          <mxGeometry x="430" y="370" width="40" height="20" as="geometry" />
        </mxCell>
        <mxCell id="0MNRADxhmi58q4JGMs-J-285" value="RDATA" style="text;html=1;strokeColor=none;fillColor=none;align=center;verticalAlign=middle;whiteSpace=wrap;rounded=0;dashed=1;dashPattern=1 1;fontSize=13;" vertex="1" parent="1">
          <mxGeometry x="430" y="410" width="40" height="20" as="geometry" />
        </mxCell>
        <mxCell id="0MNRADxhmi58q4JGMs-J-286" value="TTL" style="text;html=1;strokeColor=none;fillColor=none;align=center;verticalAlign=middle;whiteSpace=wrap;rounded=0;dashed=1;dashPattern=1 1;fontSize=13;" vertex="1" parent="1">
          <mxGeometry x="425" y="330" width="40" height="20" as="geometry" />
        </mxCell>
        <mxCell id="0MNRADxhmi58q4JGMs-J-287" value="CLASS" style="text;html=1;strokeColor=none;fillColor=none;align=center;verticalAlign=middle;whiteSpace=wrap;rounded=0;dashed=1;dashPattern=1 1;fontSize=13;" vertex="1" parent="1">
          <mxGeometry x="425" y="290" width="40" height="20" as="geometry" />
        </mxCell>
        <mxCell id="0MNRADxhmi58q4JGMs-J-288" value="TYPE" style="text;html=1;strokeColor=none;fillColor=none;align=center;verticalAlign=middle;whiteSpace=wrap;rounded=0;dashed=1;dashPattern=1 1;fontSize=13;" vertex="1" parent="1">
          <mxGeometry x="425" y="250" width="40" height="20" as="geometry" />
        </mxCell>
        <mxCell id="0MNRADxhmi58q4JGMs-J-289" value="NAME" style="text;html=1;strokeColor=none;fillColor=none;align=center;verticalAlign=middle;whiteSpace=wrap;rounded=0;dashed=1;dashPattern=1 1;fontSize=13;" vertex="1" parent="1">
          <mxGeometry x="425" y="210" width="40" height="20" as="geometry" />
        </mxCell>
        <mxCell id="0MNRADxhmi58q4JGMs-J-291" value="+" style="text;html=1;strokeColor=none;fillColor=none;align=center;verticalAlign=middle;whiteSpace=wrap;rounded=0;dashed=1;dashPattern=1 1;fontSize=13;" vertex="1" parent="1">
          <mxGeometry x="750" y="190" width="20" height="20" as="geometry" />
        </mxCell>
      </root>
    </mxGraphModel>
  </diagram>
</mxfile>
